<svg xmlns="http://www.w3.org/2000/svg" xmlns:xlink="http://www.w3.org/1999/xlink" width="500" zoomAndPan="magnify" viewBox="0 0 375 374.999991" height="500" preserveAspectRatio="xMidYMid meet" version="1.2"><defs><clipPath id="170238d30d"><path d="M 67.132812 101.929688 L 307.882812 101.929688 L 307.882812 272.929688 L 67.132812 272.929688 Z M 67.132812 101.929688 "/></clipPath></defs><g id="d48bd8b980"><rect x="0" width="375" y="0" height="374.999991" style="fill:#ffffff;fill-opacity:1;stroke:none;"/><rect x="0" width="375" y="0" height="374.999991" style="fill:#ffffff;fill-opacity:1;stroke:none;"/><g clip-rule="nonzero" clip-path="url(#170238d30d)"><path style=" stroke:none;fill-rule:nonzero;fill:#ffcb05;fill-opacity:1;" d="M 187.507812 243.042969 L 138.539062 176.117188 L 138.539062 224.808594 L 157.921875 224.808594 L 157.921875 272.902344 L 67.847656 272.902344 L 67.847656 224.808594 L 86.125 224.808594 L 86.125 150.082031 L 67.847656 150.082031 L 67.847656 101.929688 L 138.6875 101.929688 L 187.507812 169.304688 L 236.300781 101.929688 L 307.171875 101.929688 L 307.171875 149.992188 L 288.804688 149.992188 L 288.804688 224.71875 L 307.171875 224.71875 L 307.171875 272.8125 L 217.066406 272.8125 L 217.066406 224.808594 L 236.480469 224.808594 L 236.480469 176.117188 Z M 187.507812 243.042969 "/></g><g style="fill:#00274c;fill-opacity:1;"><g transform="translate(105.54492, 80.143735)"><path style="stroke:none" d="M 19.734375 -25.484375 L 19.734375 -21.390625 L 7.375 -21.390625 L 7.375 -15.125 L 19.078125 -15.125 L 19.078125 -11.015625 L 7.375 -11.015625 L 7.375 -4.109375 L 20.375 -4.109375 L 20.375 0 L 2.84375 0 L 2.84375 -25.484375 Z M 19.734375 -25.484375 "/></g></g><g style="fill:#00274c;fill-opacity:1;"><g transform="translate(127.540967, 80.143735)"><path style="stroke:none" d="M 19.734375 -25.484375 L 19.734375 -21.390625 L 7.375 -21.390625 L 7.375 -15.125 L 19.078125 -15.125 L 19.078125 -11.015625 L 7.375 -11.015625 L 7.375 -4.109375 L 20.375 -4.109375 L 20.375 0 L 2.84375 0 L 2.84375 -25.484375 Z M 19.734375 -25.484375 "/></g></g><g style="fill:#00274c;fill-opacity:1;"><g transform="translate(149.537013, 80.143735)"><path style="stroke:none" d="M 14.9375 -26.140625 C 18.507812 -26.140625 21.488281 -24.796875 23.875 -22.109375 L 20.34375 -19.515625 C 18.757812 -21.191406 16.96875 -22.03125 14.96875 -22.03125 C 12.40625 -22.03125 10.304688 -21.15625 8.671875 -19.40625 C 7.046875 -17.65625 6.234375 -15.492188 6.234375 -12.921875 C 6.234375 -10.160156 7.046875 -7.890625 8.671875 -6.109375 C 10.304688 -4.335938 12.40625 -3.453125 14.96875 -3.453125 C 17.15625 -3.453125 19.066406 -4.484375 20.703125 -6.546875 L 24.4375 -3.890625 C 23.332031 -2.328125 21.941406 -1.179688 20.265625 -0.453125 C 18.585938 0.273438 16.8125 0.640625 14.9375 0.640625 C 10.925781 0.640625 7.675781 -0.601562 5.1875 -3.09375 C 2.707031 -5.59375 1.46875 -8.773438 1.46875 -12.640625 C 1.46875 -16.640625 2.703125 -19.890625 5.171875 -22.390625 C 7.648438 -24.890625 10.90625 -26.140625 14.9375 -26.140625 Z M 14.9375 -26.140625 "/></g></g><g style="fill:#00274c;fill-opacity:1;"><g transform="translate(174.197061, 80.143735)"><path style="stroke:none" d="M 11.34375 -26.140625 C 14.3125 -26.140625 16.742188 -25.265625 18.640625 -23.515625 L 15.34375 -20.015625 C 14.351562 -21.359375 12.863281 -22.03125 10.875 -22.03125 C 9.570312 -22.03125 8.550781 -21.734375 7.8125 -21.140625 C 7.070312 -20.554688 6.703125 -19.757812 6.703125 -18.75 C 6.703125 -17.882812 7.039062 -17.191406 7.71875 -16.671875 C 8.40625 -16.160156 9.382812 -15.703125 10.65625 -15.296875 C 13.175781 -14.523438 14.894531 -13.828125 15.8125 -13.203125 C 16.738281 -12.585938 17.46875 -11.820312 18 -10.90625 C 18.53125 -10 18.796875 -8.859375 18.796875 -7.484375 C 18.796875 -5.015625 17.941406 -3.039062 16.234375 -1.5625 C 14.535156 -0.09375 12.335938 0.640625 9.640625 0.640625 C 5.898438 0.640625 3.054688 -0.507812 1.109375 -2.8125 L 4.53125 -6.125 C 5.082031 -5.28125 5.800781 -4.625 6.6875 -4.15625 C 7.582031 -3.6875 8.546875 -3.453125 9.578125 -3.453125 C 10.898438 -3.453125 11.972656 -3.796875 12.796875 -4.484375 C 13.628906 -5.171875 14.046875 -5.992188 14.046875 -6.953125 C 14.046875 -7.910156 13.695312 -8.675781 13 -9.25 C 12.300781 -9.820312 11.125 -10.363281 9.46875 -10.875 C 7.332031 -11.539062 5.785156 -12.1875 4.828125 -12.8125 C 3.867188 -13.4375 3.144531 -14.195312 2.65625 -15.09375 C 2.175781 -16 1.9375 -17.113281 1.9375 -18.4375 C 1.9375 -20.738281 2.804688 -22.597656 4.546875 -24.015625 C 6.285156 -25.429688 8.550781 -26.140625 11.34375 -26.140625 Z M 11.34375 -26.140625 "/></g></g><g style="fill:#00274c;fill-opacity:1;"><g transform="translate(194.861107, 80.143735)"><path style="stroke:none" d=""/></g></g><g style="fill:#00274c;fill-opacity:1;"><g transform="translate(205.517123, 80.143735)"><path style="stroke:none" d="M 10.9375 -25.921875 C 13.488281 -25.921875 15.5 -25.273438 16.96875 -23.984375 C 18.445312 -22.703125 19.1875 -20.9375 19.1875 -18.6875 C 19.1875 -17.34375 18.882812 -16.085938 18.28125 -14.921875 C 17.6875 -13.753906 16.691406 -12.523438 15.296875 -11.234375 L 7.375 -3.890625 L 19.1875 -3.890625 L 19.1875 0 L 2.125 0 L 2.125 -4.578125 L 12.03125 -14.140625 C 12.84375 -14.941406 13.484375 -15.675781 13.953125 -16.34375 C 14.421875 -17.019531 14.65625 -17.726562 14.65625 -18.46875 C 14.65625 -19.519531 14.285156 -20.335938 13.546875 -20.921875 C 12.816406 -21.515625 11.945312 -21.8125 10.9375 -21.8125 C 9.882812 -21.8125 9.003906 -21.5 8.296875 -20.875 C 7.585938 -20.25 7.160156 -19.410156 7.015625 -18.359375 L 2.484375 -18.71875 C 2.722656 -21.09375 3.601562 -22.882812 5.125 -24.09375 C 6.65625 -25.3125 8.59375 -25.921875 10.9375 -25.921875 Z M 10.9375 -25.921875 "/></g></g><g style="fill:#00274c;fill-opacity:1;"><g transform="translate(226.829168, 80.143735)"><path style="stroke:none" d="M 16.375 -25.484375 L 16.375 -9.078125 L 20.09375 -9.078125 L 20.09375 -5.1875 L 16.375 -5.1875 L 16.375 0 L 12.0625 0 L 12.0625 -5.1875 L 1.21875 -5.1875 L 1.21875 -9.46875 L 11.484375 -25.484375 Z M 5.609375 -9.078125 L 12.0625 -9.078125 L 12.0625 -19.375 L 11.984375 -19.375 Z M 5.609375 -9.078125 "/></g></g><g style="fill:#00274c;fill-opacity:1;"><g transform="translate(248.141212, 80.143735)"><path style="stroke:none" d="M 18.1875 -25.484375 L 18.1875 -21.59375 L 7.921875 -21.59375 L 7.8125 -16.53125 C 8.582031 -16.738281 9.492188 -16.84375 10.546875 -16.84375 C 13.140625 -16.84375 15.203125 -16.050781 16.734375 -14.46875 C 18.273438 -12.882812 19.046875 -10.859375 19.046875 -8.390625 C 19.046875 -5.742188 18.191406 -3.609375 16.484375 -1.984375 C 14.785156 -0.367188 12.566406 0.4375 9.828125 0.4375 C 7.742188 0.4375 5.992188 -0.0507812 4.578125 -1.03125 C 3.160156 -2.019531 2.160156 -3.476562 1.578125 -5.40625 L 6.125 -6.625 C 6.769531 -4.65625 8.160156 -3.671875 10.296875 -3.671875 C 11.585938 -3.671875 12.644531 -4.082031 13.46875 -4.90625 C 14.300781 -5.738281 14.71875 -6.78125 14.71875 -8.03125 C 14.71875 -9.65625 14.175781 -10.878906 13.09375 -11.703125 C 12.019531 -12.535156 10.570312 -12.953125 8.75 -12.953125 C 6.832031 -12.953125 5.054688 -12.546875 3.421875 -11.734375 L 3.671875 -25.484375 Z M 18.1875 -25.484375 "/></g></g><g style="fill:#00274c;fill-opacity:1;"><g transform="translate(107.917965, 310.028533)"><path style="stroke:none" d="M 7.5 -19.375 L 12.671875 -5.796875 L 17.90625 -19.375 L 23.109375 -19.375 L 23.109375 0 L 19.8125 0 L 19.8125 -16.09375 L 19.765625 -16.09375 L 13.875 0 L 11.46875 0 L 5.578125 -16.09375 L 5.53125 -16.09375 L 5.53125 0 L 2.25 0 L 2.25 -19.375 Z M 7.5 -19.375 "/></g></g><g style="fill:#00274c;fill-opacity:1;"><g transform="translate(133.267199, 310.028533)"><path style="stroke:none" d="M 7.421875 -13.46875 C 9.296875 -13.46875 10.695312 -13.015625 11.625 -12.109375 C 12.5625 -11.210938 13.03125 -9.796875 13.03125 -7.859375 L 13.03125 0 L 10.078125 0 L 10.078125 -1.8125 L 9.984375 -1.8125 C 9.097656 -0.382812 7.695312 0.328125 5.78125 0.328125 C 4.351562 0.328125 3.195312 -0.0390625 2.3125 -0.78125 C 1.425781 -1.519531 0.984375 -2.460938 0.984375 -3.609375 C 0.984375 -5.140625 1.617188 -6.285156 2.890625 -7.046875 C 4.171875 -7.804688 6.226562 -8.1875 9.0625 -8.1875 L 10.078125 -8.1875 L 10.078125 -8.5625 C 10.078125 -9.332031 9.800781 -9.929688 9.25 -10.359375 C 8.707031 -10.785156 7.976562 -11 7.0625 -11 C 5.707031 -11 4.539062 -10.546875 3.5625 -9.640625 L 1.828125 -11.359375 C 3.203125 -12.765625 5.066406 -13.46875 7.421875 -13.46875 Z M 4.265625 -3.859375 C 4.265625 -3.296875 4.5 -2.867188 4.96875 -2.578125 C 5.4375 -2.285156 5.976562 -2.140625 6.59375 -2.140625 C 7.726562 -2.140625 8.554688 -2.414062 9.078125 -2.96875 C 9.609375 -3.53125 9.875 -4.226562 9.875 -5.0625 L 9.875 -5.890625 L 8.921875 -5.890625 C 5.816406 -5.890625 4.265625 -5.210938 4.265625 -3.859375 Z M 4.265625 -3.859375 "/></g></g><g style="fill:#00274c;fill-opacity:1;"><g transform="translate(147.967569, 310.028533)"><path style="stroke:none" d="M 6.328125 -16.9375 L 6.328125 -13.140625 L 9.9375 -13.140625 L 9.9375 -10.34375 L 6.328125 -10.34375 L 6.328125 -4.515625 C 6.328125 -3.148438 6.9375 -2.46875 8.15625 -2.46875 C 8.976562 -2.46875 9.570312 -2.601562 9.9375 -2.875 L 9.9375 -0.109375 C 9.3125 0.179688 8.445312 0.328125 7.34375 0.328125 C 5.820312 0.328125 4.722656 -0.00390625 4.046875 -0.671875 C 3.367188 -1.335938 3.03125 -2.507812 3.03125 -4.1875 L 3.03125 -10.34375 L 0.328125 -10.34375 L 0.328125 -13.140625 L 3.03125 -13.140625 L 3.03125 -16.9375 Z M 6.328125 -16.9375 "/></g></g><g style="fill:#00274c;fill-opacity:1;"><g transform="translate(158.616433, 310.028533)"><path style="stroke:none" d="M 5.140625 -20.703125 L 5.140625 -11.3125 L 5.203125 -11.3125 C 5.546875 -12 6.0625 -12.53125 6.75 -12.90625 C 7.4375 -13.28125 8.207031 -13.46875 9.0625 -13.46875 C 10.570312 -13.46875 11.75 -13.015625 12.59375 -12.109375 C 13.4375 -11.210938 13.859375 -9.96875 13.859375 -8.375 L 13.859375 0 L 10.5625 0 L 10.5625 -6.8125 C 10.5625 -9.28125 9.757812 -10.515625 8.15625 -10.515625 C 7.164062 -10.515625 6.414062 -10.207031 5.90625 -9.59375 C 5.394531 -8.976562 5.140625 -8.179688 5.140625 -7.203125 L 5.140625 0 L 1.859375 0 L 1.859375 -20.703125 Z M 5.140625 -20.703125 "/></g></g><g style="fill:#00274c;fill-opacity:1;"><g transform="translate(174.329674, 310.028533)"><path style="stroke:none" d=""/></g></g><g style="fill:#00274c;fill-opacity:1;"><g transform="translate(182.432674, 310.028533)"><path style="stroke:none" d="M 7.96875 -21.03125 C 8.789062 -21.03125 9.472656 -20.960938 10.015625 -20.828125 L 9.796875 -18.046875 C 9.285156 -18.171875 8.832031 -18.234375 8.4375 -18.234375 C 7.707031 -18.234375 7.171875 -18.03125 6.828125 -17.625 C 6.492188 -17.226562 6.328125 -16.5625 6.328125 -15.625 L 6.328125 -13.140625 L 9.359375 -13.140625 L 9.359375 -10.34375 L 6.328125 -10.34375 L 6.328125 0 L 3.03125 0 L 3.03125 -10.34375 L 0.328125 -10.34375 L 0.328125 -13.140625 L 3.03125 -13.140625 L 3.03125 -15.1875 C 3.03125 -17.25 3.40625 -18.738281 4.15625 -19.65625 C 4.90625 -20.570312 6.175781 -21.03125 7.96875 -21.03125 Z M 7.96875 -21.03125 "/></g></g><g style="fill:#00274c;fill-opacity:1;"><g transform="translate(192.068667, 310.028533)"><path style="stroke:none" d="M 8.34375 -13.46875 C 10.351562 -13.46875 12.046875 -12.828125 13.421875 -11.546875 C 14.804688 -10.273438 15.5 -8.613281 15.5 -6.5625 C 15.5 -4.519531 14.804688 -2.859375 13.421875 -1.578125 C 12.046875 -0.304688 10.351562 0.328125 8.34375 0.328125 C 6.34375 0.328125 4.648438 -0.304688 3.265625 -1.578125 C 1.890625 -2.859375 1.203125 -4.519531 1.203125 -6.5625 C 1.203125 -8.613281 1.890625 -10.273438 3.265625 -11.546875 C 4.648438 -12.828125 6.34375 -13.46875 8.34375 -13.46875 Z M 4.484375 -6.5625 C 4.484375 -5.394531 4.851562 -4.445312 5.59375 -3.71875 C 6.332031 -2.988281 7.25 -2.625 8.34375 -2.625 C 9.457031 -2.625 10.378906 -2.992188 11.109375 -3.734375 C 11.835938 -4.472656 12.203125 -5.414062 12.203125 -6.5625 C 12.203125 -7.738281 11.832031 -8.691406 11.09375 -9.421875 C 10.351562 -10.148438 9.429688 -10.515625 8.328125 -10.515625 C 7.242188 -10.515625 6.332031 -10.140625 5.59375 -9.390625 C 4.851562 -8.640625 4.484375 -7.695312 4.484375 -6.5625 Z M 4.484375 -6.5625 "/></g></g><g style="fill:#00274c;fill-opacity:1;"><g transform="translate(208.767404, 310.028533)"><path style="stroke:none" d="M 9.09375 -13.46875 C 9.363281 -13.46875 9.753906 -13.40625 10.265625 -13.28125 L 10.265625 -10.09375 C 9.703125 -10.257812 9.171875 -10.34375 8.671875 -10.34375 C 7.597656 -10.34375 6.738281 -10.023438 6.09375 -9.390625 C 5.457031 -8.753906 5.140625 -7.90625 5.140625 -6.84375 L 5.140625 0 L 1.859375 0 L 1.859375 -13.140625 L 5.140625 -13.140625 L 5.140625 -11.0625 L 5.203125 -11.0625 C 5.566406 -11.820312 6.085938 -12.410156 6.765625 -12.828125 C 7.441406 -13.253906 8.21875 -13.46875 9.09375 -13.46875 Z M 9.09375 -13.46875 "/></g></g><g style="fill:#00274c;fill-opacity:1;"><g transform="translate(219.416268, 310.028533)"><path style="stroke:none" d=""/></g></g><g style="fill:#ffcb05;fill-opacity:1;"><g transform="translate(227.51952, 310.028533)"><path style="stroke:none" d="M 7.5 -19.375 L 12.671875 -5.796875 L 17.90625 -19.375 L 23.109375 -19.375 L 23.109375 0 L 19.8125 0 L 19.8125 -16.09375 L 19.765625 -16.09375 L 13.875 0 L 11.46875 0 L 5.578125 -16.09375 L 5.53125 -16.09375 L 5.53125 0 L 2.25 0 L 2.25 -19.375 Z M 7.5 -19.375 "/></g></g><g style="fill:#ffcb05;fill-opacity:1;"><g transform="translate(252.868754, 310.028533)"><path style="stroke:none" d="M 5.609375 -19.375 L 5.609375 -3.125 L 13.859375 -3.125 L 13.859375 0 L 2.15625 0 L 2.15625 -19.375 Z M 5.609375 -19.375 "/></g></g></g></svg>